<svg width="19" height="20" viewBox="0 0 19 20" fill="none" xmlns="http://www.w3.org/2000/svg">
<g clip-path="url(#clip0_5427_66)">
<path d="M9.475 2.46715C12.0048 2.46715 12.3049 2.47662 13.3045 2.52242C15.8722 2.63928 17.0716 3.8576 17.1884 6.40638C17.2342 7.4052 17.2429 7.70524 17.2429 10.2351C17.2429 12.7657 17.2334 13.0649 17.1884 14.0638C17.0708 16.6102 15.8746 17.8309 13.3045 17.9477C12.3049 17.9935 12.0064 18.003 9.475 18.003C6.94518 18.003 6.64513 17.9935 5.64631 17.9477C3.07227 17.8301 1.87921 16.6062 1.76235 14.063C1.71655 13.0641 1.70708 12.7649 1.70708 10.2343C1.70708 7.70445 1.71734 7.4052 1.76235 6.40559C1.88 3.8576 3.07622 2.63849 5.64631 2.52163C6.64592 2.47662 6.94518 2.46715 9.475 2.46715V2.46715ZM9.475 0.759277C6.90175 0.759277 6.5796 0.770332 5.56893 0.816127C2.12793 0.974044 0.215556 2.88326 0.0576396 6.32742C0.0110542 7.33888 0 7.66103 0 10.2343C0 12.8075 0.0110542 13.1305 0.05685 14.1411C0.214767 17.5821 2.12398 19.4945 5.56814 19.6524C6.5796 19.6982 6.90175 19.7093 9.475 19.7093C12.0483 19.7093 12.3712 19.6982 13.3819 19.6524C16.8197 19.4945 18.7368 17.5853 18.8924 14.1411C18.9389 13.1305 18.95 12.8075 18.95 10.2343C18.95 7.66103 18.9389 7.33888 18.8932 6.32821C18.7384 2.89036 16.8268 0.974834 13.3826 0.816917C12.3712 0.770332 12.0483 0.759277 9.475 0.759277V0.759277ZM9.475 5.36887C6.78805 5.36887 4.60959 7.54733 4.60959 10.2343C4.60959 12.9212 6.78805 15.1005 9.475 15.1005C12.162 15.1005 14.3404 12.922 14.3404 10.2343C14.3404 7.54733 12.162 5.36887 9.475 5.36887ZM9.475 13.3926C7.73081 13.3926 6.31667 11.9793 6.31667 10.2343C6.31667 8.49009 7.73081 7.07594 9.475 7.07594C11.2192 7.07594 12.6333 8.49009 12.6333 10.2343C12.6333 11.9793 11.2192 13.3926 9.475 13.3926ZM14.5331 4.04C13.9046 4.04 13.3953 4.54928 13.3953 5.177C13.3953 5.80472 13.9046 6.314 14.5331 6.314C15.1608 6.314 15.6693 5.80472 15.6693 5.177C15.6693 4.54928 15.1608 4.04 14.5331 4.04Z" fill="white"/>
</g>
<defs>
<clipPath id="clip0_5427_66">
<rect width="18.95" height="18.95" fill="white" transform="translate(0 0.759277)"/>
</clipPath>
</defs>
</svg>
