<svg width="20" height="21" viewBox="0 0 20 21" fill="none" xmlns="http://www.w3.org/2000/svg">
<path d="M2.5 7.42603L9.075 11.8094C9.34888 11.9921 9.67075 12.0896 10 12.0896C10.3292 12.0896 10.6511 11.9921 10.925 11.8094L17.5 7.42603M4.16667 16.5927H15.8333C16.2754 16.5927 16.6993 16.4171 17.0118 16.1045C17.3244 15.792 17.5 15.3681 17.5 14.926V6.59269C17.5 6.15066 17.3244 5.72674 17.0118 5.41418C16.6993 5.10162 16.2754 4.92603 15.8333 4.92603H4.16667C3.72464 4.92603 3.30072 5.10162 2.98816 5.41418C2.67559 5.72674 2.5 6.15066 2.5 6.59269V14.926C2.5 15.3681 2.67559 15.792 2.98816 16.1045C3.30072 16.4171 3.72464 16.5927 4.16667 16.5927Z" stroke="#8BAC3E" stroke-width="2" stroke-linecap="round" stroke-linejoin="round"/>
</svg>
