<svg width="20" height="21" viewBox="0 0 20 21" fill="none" xmlns="http://www.w3.org/2000/svg">
<path d="M2.98816 3.74743C2.67559 4.05999 2.5 4.48392 2.5 4.92594V5.75928C2.5 12.6626 8.09667 18.2593 15 18.2593H15.8333C16.2754 18.2593 16.6993 18.0837 17.0118 17.7711C17.3244 17.4586 17.5 17.0346 17.5 16.5926V13.8601C17.5 13.6851 17.445 13.5146 17.3427 13.3727C17.2404 13.2307 17.096 13.1246 16.93 13.0693L13.1858 11.8209C12.9956 11.7577 12.7888 11.7652 12.6036 11.842C12.4184 11.9189 12.2671 12.0599 12.1775 12.2393L11.2358 14.1201C9.19538 13.1982 7.5611 11.5639 6.63917 9.52344L8.52 8.58178C8.69938 8.49216 8.84042 8.34086 8.91726 8.15565C8.9941 7.97044 9.00158 7.76373 8.93833 7.57344L7.69 3.82928C7.63475 3.66341 7.52874 3.51911 7.38696 3.41682C7.24519 3.31452 7.07483 3.25941 6.9 3.25928H4.16667C3.72464 3.25928 3.30072 3.43487 2.98816 3.74743Z" stroke="#8BAC3E" stroke-width="2" stroke-linecap="round" stroke-linejoin="round"/>
</svg>
